<?xml version="1.0" encoding="utf-8"?>
<!-- Generator: Adobe Illustrator 26.0.2, SVG Export Plug-In . SVG Version: 6.00 Build 0)  -->
<svg version="1.1" id="圖層_1" xmlns="http://www.w3.org/2000/svg" xmlns:xlink="http://www.w3.org/1999/xlink" x="0px" y="0px"
	 viewBox="0 0 24 24" style="enable-background:new 0 0 24 24;" xml:space="preserve">
<style type="text/css">
	.st0{fill:#3E6896;}
</style>
<desc>Created with Fabric.js 1.7.22</desc>
<g transform="translate(-175.05 -175.05000000000004) scale(3.89 3.89)">
	<path class="st0" d="M47.8,50.5h-0.5c-0.1,0-0.1-0.1-0.1-0.1v-2c0-0.1,0.1-0.1,0.1-0.1h0.5c0.1,0,0.1,0.1,0.1,0.1v2
		C48,50.4,47.9,50.5,47.8,50.5z"/>
	<path class="st0" d="M48.8,50.5h-0.5c-0.1,0-0.1-0.1-0.1-0.1V48c0-0.1,0.1-0.1,0.1-0.1h0.5c0.1,0,0.1,0.1,0.1,0.1v2.4
		C49,50.4,48.9,50.5,48.8,50.5z"/>
	<path class="st0" d="M46.8,50.5h-0.5c-0.1,0-0.1-0.1-0.1-0.1v-1c0-0.1,0.1-0.1,0.1-0.1h0.5c0.1,0,0.1,0.1,0.1,0.1v1
		C47,50.4,46.9,50.5,46.8,50.5z"/>
	<path class="st0" d="M49.8,50.5h-0.5c-0.1,0-0.1-0.1-0.1-0.1v-3c0-0.1,0.1-0.1,0.1-0.1h0.5c0.1,0,0.1,0.1,0.1,0.1v3
		C49.9,50.4,49.9,50.5,49.8,50.5z"/>
	<polygon class="st0" points="46.7,48.4 46.5,48.2 47.5,47 48.5,46.8 49.5,46 49.6,46.1 48.6,47 47.6,47.2 	"/>
	<circle class="st0" cx="46.6" cy="48.3" r="0.3"/>
	<circle class="st0" cx="47.6" cy="47.2" r="0.3"/>
	<circle class="st0" cx="48.6" cy="46.9" r="0.3"/>
	<circle class="st0" cx="49.6" cy="46.1" r="0.3"/>
</g>
<desc>Created with Fabric.js 1.7.22</desc>
</svg>
