<?xml version="1.0" encoding="utf-8"?>
<!-- Generator: Adobe Illustrator 26.0.2, SVG Export Plug-In . SVG Version: 6.00 Build 0)  -->
<svg version="1.1" id="圖層_1" xmlns="http://www.w3.org/2000/svg" xmlns:xlink="http://www.w3.org/1999/xlink" x="0px" y="0px"
	 viewBox="0 0 24 24" style="enable-background:new 0 0 24 24;" xml:space="preserve">
<style type="text/css">
	.st0{fill:#3E6896;}
</style>
<path class="st0" d="M21.1,7.2C21.1,7.2,21.1,7.2,21.1,7.2C21.1,7.2,21.1,7.2,21.1,7.2C21.1,7.2,21.1,7.2,21.1,7.2L19,6.2
	c-0.1,0-0.1,0-0.2,0l-2.1,1c0,0,0,0,0,0c0,0,0,0,0,0c0,0,0,0,0,0c-0.1,0-0.1,0.1-0.1,0.2l-1.9-1V4.3c0,0,0,0,0,0s0,0,0,0
	c0-0.1,0-0.1-0.1-0.2c0,0,0,0,0,0c0,0,0,0,0,0c0,0,0,0,0,0l-2.1-1c-0.1,0-0.1,0-0.2,0l-2.1,1c0,0,0,0,0,0c0,0,0,0,0,0c0,0,0,0,0,0
	c-0.1,0-0.1,0.1-0.1,0.2v2.1l-1.9,1c0-0.1,0-0.1-0.1-0.2c0,0,0,0,0,0c0,0,0,0,0,0c0,0,0,0,0,0l-2.1-1c-0.1,0-0.1,0-0.2,0l-2.1,1
	c0,0,0,0,0,0c0,0,0,0,0,0c0,0,0,0,0,0c-0.1,0-0.1,0.1-0.1,0.2V10c0,0.1,0,0.2,0.1,0.2l2,1v2.6l-2,1c0,0,0,0,0,0c0,0,0,0,0,0
	c0,0,0,0,0,0c-0.1,0-0.1,0.1-0.1,0.2c0,0,0,0,0,0v2.5c0,0.1,0,0.2,0.1,0.2l2.1,1c0,0,0.1,0,0.1,0c0,0,0.1,0,0.1,0l2.1-1
	c0.1,0,0.1-0.1,0.1-0.2l1.9,1v2.1c0,0.1,0,0.2,0.1,0.2l2.1,1c0,0,0.1,0,0.1,0c0,0,0.1,0,0.1,0l2.1-1c0.1,0,0.1-0.1,0.1-0.2v-2.1
	l1.9-1c0,0.1,0,0.1,0.1,0.2l2.1,1c0,0,0.1,0,0.1,0c0,0,0.1,0,0.1,0l2.1-1c0.1,0,0.1-0.1,0.1-0.2v-2.5c0,0,0,0,0,0
	c0-0.1,0-0.1-0.1-0.2c0,0,0,0,0,0c0,0,0,0,0,0c0,0,0,0,0,0l-2-1v-2.6l2-1c0.1,0,0.1-0.1,0.1-0.2V7.4c0,0,0,0,0,0
	C21.2,7.3,21.2,7.3,21.1,7.2z M16.9,7.7l1.7,0.8v2.1l-1.7-0.8V7.7z M12.3,3.5l1.7,0.8l-1.7,0.8l-1.7-0.8L12.3,3.5z M14.2,4.6v2.1
	l-1.7,0.8V5.4L14.2,4.6z M10.4,4.6l1.7,0.8v2.1l-1.7-0.8V4.6z M8.1,7.9l1.9-1C10,6.9,10,7,10.1,7l2.1,1c0,0,0.1,0,0.1,0
	c0,0,0.1,0,0.1,0l2.1-1c0.1,0,0.1-0.1,0.1-0.2l1.9,1v1.9l-2.1,1.1l-2-1c-0.1,0-0.1,0-0.2,0l-2,1L8.1,9.8V7.9z M10.6,11.1l1.7-0.8
	l1.7,0.8l-1.7,0.8L10.6,11.1z M12.1,12.3v2.1l-1.7-0.8v-2.1L12.1,12.3z M12.5,12.3l1.7-0.8v2.1l-1.7,0.8V12.3z M5.7,6.6l1.7,0.8
	L5.7,8.2L4,7.4L5.7,6.6z M7.6,7.7v2.1l-1.7,0.8V8.6L7.6,7.7z M3.8,9.8V7.7l1.7,0.8v2.1L3.8,9.8z M5.5,18.1l-1.7-0.8c0,0,0-2.1,0-2.1
	L5.5,16V18.1z M5.7,15.7L4,14.9l1.7-0.8l1.7,0.8L5.7,15.7z M7.6,17.3l-1.7,0.8V16l1.7-0.8V17.3z M7.8,14.6l-1.9-0.9v-2.6l1.9-0.9
	l2.1,1.1v2.3L7.8,14.6z M12.1,21.3l-1.7-0.8v-2.1l1.7,0.8V21.3z M12.3,18.8L10.6,18l1.7-0.8l1.7,0.8L12.3,18.8z M14.2,20.4l-1.7,0.8
	v-2.1l1.7-0.8V20.4z M16.5,17l-1.9,1c0-0.1,0-0.1-0.1-0.1c0,0,0,0,0,0c0,0,0,0,0,0c0,0,0,0,0,0l-2.1-1c-0.1,0-0.1,0-0.2,0l-2.1,1
	c0,0,0,0,0,0c0,0,0,0,0,0c0,0,0,0,0,0c0,0-0.1,0.1-0.1,0.1l-1.9-1v-2l2.1-1.1l2,1c0,0,0.1,0,0.1,0c0,0,0.1,0,0.1,0l2-1l2.1,1.1V17z
	 M14.6,13.6v-2.3l2-1.1l2,1v2.6l-2,1L14.6,13.6z M18.7,18.1l-1.7-0.8v-2.1l1.7,0.8V18.1z M20.8,17.3l-1.7,0.8V16l1.7-0.8V17.3z
	 M20.5,14.9l-1.7,0.8l-1.7-0.8l1.7-0.8L20.5,14.9z M18.9,8.2l-1.7-0.8l1.7-0.8l1.7,0.8L18.9,8.2z M20.8,9.8l-1.7,0.8V8.6l1.7-0.8
	V9.8z"/>
</svg>
